<svg xmlns="http://www.w3.org/2000/svg" width="72" height="42" viewBox="0 0 72 42">
  <path fill="#FFF" fill-rule="evenodd" d="M216,79 L216,85 C216,88.3137085 213.313708,91 210,91 L194,91 L194,79 L216,79 Z M191,79 L191,91 L169,91 L169,79 L191,79 Z M166,79 L166,91 L150,91 C146.686292,91 144,88.3137085 144,85 L144,79 L166,79 Z M216,64 L216,76 L194,76 L194,64 L216,64 Z M191,64 L191,76 L169,76 L169,64 L191,64 Z M166,64 L166,76 L144,76 L144,64 L166,64 Z M210,49 C213.313708,49 216,51.6862915 216,55 L216,61 L194,61 L194,49 L210,49 Z M191,49 L191,61 L169,61 L169,49 L191,49 Z M166,49 L166,61 L144,61 L144,55 C144,51.6862915 146.686292,49 150,49 L166,49 Z" transform="translate(-144 -49)"/>
</svg>
