<svg xmlns="http://www.w3.org/2000/svg" width="72" height="42" viewBox="0 0 72 42">
  <path fill="#FFF" fill-rule="evenodd" d="M66,0 C69.3137085,0 72,2.6862915 72,6 C72,9.3137085 69.3137085,12 66,12 C64.1939811,12 62.5743305,11.202062 61.4743626,9.93950032 L47.3226915,17.0156362 C47.7613831,18.2623306 48,19.6032993 48,21 C48,22.3970733 47.7612557,23.7383849 47.3223403,24.9853617 L61.4743626,32.0604997 C62.5743305,30.797938 64.1939811,30 66,30 C69.3137085,30 72,32.6862915 72,36 C72,39.3137085 69.3137085,42 66,42 C62.6862915,42 60,39.3137085 60,36 C60,35.568823 60.0454816,35.1482689 60.131909,34.7428733 L45.9798144,27.6658502 C43.8271915,30.8822703 40.1609069,33 36,33 C31.8395242,33 28.1735681,30.882709 26.0208546,27.6668498 L11.868091,34.7428733 C11.9545184,35.1482689 12,35.568823 12,36 C12,39.3137085 9.3137085,42 6,42 C2.6862915,42 0,39.3137085 0,36 C0,32.6862915 2.6862915,30 6,30 C7.80601894,30 9.42566947,30.797938 10.5256374,32.0604997 L24.6776597,24.9853617 C24.2387443,23.7383849 24,22.3970733 24,21 C24,19.6032993 24.2386169,18.2623306 24.6773085,17.0156362 L10.5256374,9.93950032 C9.42566947,11.202062 7.80601894,12 6,12 C2.6862915,12 0,9.3137085 0,6 C0,2.6862915 2.6862915,0 6,0 C9.3137085,0 12,2.6862915 12,6 C12,6.43117697 11.9545184,6.85173114 11.868091,7.25712672 L26.0208546,14.3331502 C28.1735681,11.117291 31.8395242,9 36,9 C40.1609069,9 43.8271915,11.1177297 45.9798144,14.3341498 L60.131909,7.25712672 C60.0454816,6.85173114 60,6.43117697 60,6 C60,2.6862915 62.6862915,0 66,0 Z"/>
</svg>
