<svg xmlns="http://www.w3.org/2000/svg" width="220" height="95" viewBox="0 0 220 95">
  <path fill="#FFF" d="M92.7635328,88.3940397 C92.8888889,91.7284768 90.3190883,94.5596026 87.0598291,94.6854305 C83.7378917,94.8112583 80.980057,92.2317881 80.7920228,88.9602649 C80.6666667,85.6258278 83.2364672,82.8576159 86.4957265,82.6688742 C89.8176638,82.5430464 92.5754986,85.1225166 92.7635328,88.3940397 Z M113.823362,9.62582781 C121.387932,9.62582781 128.45094,11.8516058 134.388519,15.6830275 C179.995356,9.0286489 215.448072,9.41174324 219.347785,17.6871193 L219.347785,17.6871193 L219.416918,17.8441086 C220.749179,21.0464509 217.605557,24.8712974 210.590378,29.070352 L210.590378,29.070352 L209.887896,29.4845718 C208.934663,30.0384506 207.915181,30.5986257 206.830814,31.1645369 L206.830814,31.1645369 L206.005393,31.5900371 C205.865803,31.6611301 205.725204,31.7323106 205.583599,31.8035774 L205.583599,31.8035774 L204.72192,32.2322057 C204.139449,32.518637 203.54097,32.8064149 202.926652,33.0954692 L202.926652,33.0954692 L201.993319,33.5299994 L201.036357,33.9663918 L200.055893,34.404594 L199.052056,34.8445535 C198.882809,34.9180236 198.712593,34.9915647 198.541412,35.0651758 L198.541412,35.0651758 L197.502754,35.5076726 L196.441041,35.9517955 L195.356403,36.3974918 L194.248966,36.8447091 C193.876034,36.9940292 193.499325,37.1435941 193.118858,37.2933949 L193.118858,37.2933949 L192.548637,37.5169694 L191.393986,37.9640931 L190.2206,38.41112 L189.028727,38.8579744 L187.818619,39.3045807 L186.590525,39.7508631 L185.344697,40.196746 L184.081384,40.6421535 L182.800837,41.0870101 L182.488225,41.1938791 C184.545901,42.2626614 185.840456,44.6554515 185.840456,47.8145695 C185.840456,52.910596 182.706553,55.4271523 179.509972,55.4271523 C177.527778,55.4271523 175.94853,54.6760083 174.882559,52.9522292 L174.746439,52.7218543 L174.683761,52.7218543 L174.558405,55.0496689 L174.558405,55.1754967 L172.301994,55.1754967 C172.358405,54.3261589 172.414815,53.0691391 172.425533,51.9089437 L172.42735,51.5264901 L172.426593,44.4732212 L171.966073,44.6169435 C171.847995,44.6533702 171.729761,44.689784 171.611371,44.7261848 L171.255736,44.8353479 L169.823951,45.2711946 L168.37756,45.7056954 L168.101593,45.7872212 L168.102564,51.1490066 C168.102564,52.49117 168.152088,53.6344943 168.207114,54.6673525 L168.22792,55.0496689 L165.97151,55.0496689 L165.846154,52.7218543 L165.783476,52.7218543 C165.094017,53.8543046 163.589744,55.3642384 161.082621,55.3642384 C158.933659,55.3642384 156.30353,54.1567945 156.197073,49.4354424 L156.193593,49.1542212 L154.744108,49.5431492 L153.165432,49.960028 C152.901325,50.0293284 152.636724,50.098538 152.371634,50.1676552 L152.371634,50.1676552 L152.056593,50.2492212 L152.05698,54.986755 L149.487179,54.986755 L149.486593,50.9102212 L149.16744,50.9925282 C149.032983,51.0267048 148.898408,51.0608567 148.763718,51.0949838 L148.359297,51.1972902 L146.734718,51.6050006 L145.099288,52.0102295 L143.453258,52.4129014 L142.591593,52.6192212 L142.592593,55.0496689 L140.022792,55.0496689 L140.022593,53.2352212 L138.454074,53.6048176 L136.768148,53.9965042 L135.072875,54.3852552 L133.368504,54.7709949 L131.655285,55.1536477 L129.93347,55.5331377 L128.203308,55.9093894 L126.46505,56.2823269 L124.718946,56.6518747 L122.965246,57.017957 L121.204201,57.3804981 L119.436061,57.7394222 L117.583908,58.1099754 C117.262198,58.1738555 116.940614,58.2374584 116.619164,58.3007834 L116.619164,58.3007834 L114.692124,58.6773924 C114.371238,58.7396028 114.050499,58.8015338 113.729917,58.8631846 L113.729917,58.8631846 L111.80835,59.2297225 L109.890875,59.5895022 C109.571657,59.6489003 109.252623,59.7080154 108.933783,59.7668467 L108.933783,59.7668467 L107.023112,60.1164232 C106.705072,60.1741164 106.387239,60.2315243 106.069621,60.2886463 L106.069621,60.2886463 L104.166553,60.6279403 L102.268996,60.9603353 L100.377305,61.2857961 L98.4918369,61.6042875 C98.1781303,61.6567867 97.8646978,61.708994 97.5515466,61.7609087 L97.5515466,61.7609087 L95.6760761,62.0688799 L93.8077145,62.3697937 L93.8077145,62.3697937 L92.8763105,62.517593 L91.0192778,62.8078546 L89.1702414,63.0909707 L87.3295561,63.3669061 L85.497577,63.6356256 L83.6746588,63.8970939 L81.8611565,64.1512759 L81.40939,64.2141047 C88.9058776,70.6641116 100.739975,74.8046358 114.074074,74.8046358 C129.492877,74.8046358 142.905983,69.2682119 149.925926,61.0264901 C144.598291,75.7483444 130.558405,86.3178808 114.074074,86.3178808 C98.8995057,86.3178808 85.7432536,77.3612224 79.641343,64.453803 L78.2638193,64.63764 L76.4806943,64.8697517 L74.7084048,65.0944362 L72.9473057,65.3116583 L71.1977521,65.5213827 C70.9071417,65.5557101 70.6170271,65.5897235 70.3274157,65.6234223 L70.3274157,65.6234223 L68.5958457,65.8218343 C68.3082768,65.8542718 68.0212261,65.8863933 67.7347007,65.9181979 L67.7347007,65.9181979 L66.0219127,66.1052182 L64.3220898,66.2846 L62.6355869,66.4563081 L60.9627588,66.6203073 L59.3039606,66.7765623 L57.659547,66.9250381 L56.0298731,67.0656993 L54.4152937,67.1985107 L52.8161637,67.3234371 L51.2328381,67.4404433 C50.9702873,67.4592824 50.7084098,67.47779 50.4472129,67.4959654 L50.4472129,67.4959654 L48.8882593,67.6010253 L47.3459974,67.698077 L45.8207821,67.7870852 C45.5680198,67.8012477 45.3159826,67.8150735 45.0646778,67.8285621 L45.0646778,67.8285621 L43.5656978,67.9054391 L42.0846516,67.9741847 L40.6218942,68.0347636 L39.1777804,68.0871405 L37.7526653,68.1312804 C37.516749,68.1379487 37.2816392,68.1442722 37.0473431,68.1502504 L37.0473431,68.1502504 L35.6513913,68.1819686 L34.2753254,68.2053616 C33.8199906,68.2117678 33.3680291,68.2167806 32.9195003,68.2203942 L32.9195003,68.2203942 L31.7402259,68.226652 L30.5802861,68.226652 C30.4087824,68.2257469 30.2379443,68.2249842 30.0677735,68.2240053 L30.0677735,68.2240053 L29.054771,68.2155373 C28.8872767,68.2136935 28.7204533,68.2116336 28.5543027,68.2093575 L28.5543027,68.2093575 L27.5654863,68.1931065 C27.4020339,68.1899656 27.2392579,68.1866086 27.07716,68.1830354 L27.07716,68.1830354 L26.1127249,68.1590021 C25.9533469,68.1545642 25.7946507,68.1499102 25.636638,68.14504 L25.636638,68.14504 L24.6967796,68.113225 L23.7734139,68.0762226 L22.8666278,68.0340331 C22.7168832,68.0265693 22.5678331,68.0188893 22.4194792,68.0109933 L22.4194792,68.0109933 L21.5377251,67.9610237 L20.6727674,67.9058677 L19.8246928,67.8455256 L18.9935883,67.7799978 L18.1795403,67.7092844 L17.3826359,67.6333859 L16.6029616,67.5523025 L15.8406042,67.4660344 C15.7149925,67.4512244 15.590106,67.4361983 15.4659465,67.4209563 L15.4659465,67.4209563 L14.7297272,67.3269119 C14.1235048,67.2463816 13.5355468,67.1604514 12.9660791,67.0691222 L12.9660791,67.0691222 L12.2916076,66.9569355 C11.958824,66.8995465 11.6327295,66.8402139 11.3133728,66.7789379 L11.3133728,66.7789379 L10.6836576,66.6537947 C10.5802071,66.6325057 10.477509,66.6110007 10.3755649,66.5892799 L10.3755649,66.5892799 L9.77296369,66.4563637 C9.67404312,66.4337792 9.57588023,66.4109788 9.47847683,66.3879625 L9.47847683,66.3879625 L8.90318482,66.2472739 C8.33703562,66.1039947 7.79835828,65.9529437 7.28754315,65.7941222 L7.28754315,65.7941222 L6.78602989,65.6327106 C3.66878265,64.5940334 1.67433962,63.2436913 0.901871178,61.5820216 C-0.81904043,57.8801402 3.53660972,53.3282739 13.0162793,48.3187514 L13.0162793,48.3187514 L13.8295544,47.8943308 C14.1046978,47.7525 14.3838858,47.6103147 14.6670971,47.4677839 L14.6670971,47.4677839 L15.5287795,47.0391634 C16.1112527,46.7527369 16.7097338,46.464963 17.3240527,46.1759119 L17.3240527,46.1759119 L18.2573879,45.7413861 L19.2143519,45.3049971 L20.1948169,44.8667976 L21.1986552,44.4268401 C21.3679023,44.3533703 21.5381179,44.2798294 21.7092994,44.2062185 L21.7092994,44.2062185 L22.7479581,43.7637228 L23.8096707,43.3196006 L24.8943095,42.8739046 L26.0017466,42.4266874 C26.3746779,42.2773673 26.7513876,42.1278025 27.1318545,41.9780016 L27.1318545,41.9780016 L27.7020754,41.7544272 L28.8567259,41.3073035 L30.0301127,40.8602766 L31.2219854,40.4134221 L32.4320937,39.9668158 L33.6601872,39.5205334 L34.9060156,39.0746506 L36.1693285,38.629243 L37.4498755,38.1843864 L38.7474063,37.7401565 L40.0616706,37.296629 L41.392418,36.8538795 L42.7393982,36.4119839 C43.1910692,36.264836 43.6454039,36.1178431 44.1023607,35.9710177 L44.1023607,35.9710177 L45.4810552,35.5310567 L46.8752315,35.0921766 L48.284639,34.6544531 C48.5207957,34.5815997 48.7575765,34.5087978 48.9949763,34.4360487 L48.9949763,34.4360487 L50.4267615,34.000202 L51.8731521,33.5657012 L53.3338978,33.1326219 L54.8087482,32.7010398 L56.297453,32.2710307 L57.7997619,31.8426702 L59.3154244,31.4160342 L60.8441903,30.9911981 L62.3858092,30.5682378 L63.9400306,30.147229 L65.5066044,29.7282473 L67.08528,29.3113685 L67.08528,29.3113685 L67.8790778,29.1037414 L69.4754369,28.6901588 L71.0832721,28.2788683 C71.352187,28.2105152 71.6215697,28.1422606 71.8914149,28.0741063 L71.8914149,28.0741063 L73.5159947,27.666396 L75.1514246,27.261167 L76.7974543,26.8584951 L79.2858259,26.2594474 C79.563574,26.1932251 79.8417377,26.1271172 80.1203117,26.0611254 L80.1203117,26.0611254 L81.7966387,25.6665789 L83.0398518,25.3776721 C89.9794656,15.8409807 101.182716,9.62582781 113.823362,9.62582781 Z M218.521161,18.0974596 C214.904153,10.4219975 180.177956,10.0670015 135.568336,16.4737486 C141.999608,20.9723216 146.988284,27.4040364 149.675214,34.9172185 C142.655271,26.6754967 129.242165,21.1390728 113.823362,21.1390728 C98.4045584,21.1390728 84.991453,26.6754967 77.97151,34.9172185 C79.0511232,31.9339234 80.4885014,29.1211415 82.231487,26.5322736 L81.1686774,26.7806396 L79.5002455,27.1758568 L77.8417926,27.573808 L77.8417926,27.573808 L77.0163866,27.7737851 L75.3733722,28.175695 L73.7409631,28.5801492 L72.11941,28.9870717 L70.5089633,29.3963869 L68.9098736,29.8080186 L67.3223914,30.2218912 L65.7467672,30.6379288 L64.1832515,31.0560554 L61.8612294,31.6869963 L60.329081,32.1100136 L58.809918,32.5348544 L57.3039907,32.9614429 L55.8115499,33.3897031 L54.3328459,33.8195592 L52.8681293,34.2509354 L51.4176507,34.6837557 L49.9816605,35.1179443 L48.5604092,35.5534254 L47.1541474,35.990123 L45.7631256,36.4279612 L44.3875943,36.8668643 L43.027804,37.3067563 L41.6840052,37.7475613 L40.3564485,38.1892036 L39.0453844,38.6316071 L37.7510634,39.0746962 C37.5367524,39.1485972 37.3231494,39.2225237 37.1102598,39.296474 L37.1102598,39.296474 L35.8415231,39.7404489 L34.5901558,40.1849196 L33.3564084,40.6298103 L32.1405315,41.0750449 L30.9427754,41.5205477 L29.7633909,41.9662428 L28.6026282,42.4120543 L27.4607381,42.8579063 L26.3673336,43.2920281 C26.1869155,43.3642684 26.0074069,43.4364508 25.8288101,43.5085735 L25.8288101,43.5085735 L24.7681908,43.9405794 C24.5932509,44.0124562 24.4192275,44.0842698 24.246123,44.1560184 L24.246123,44.1560184 L23.2185414,44.5857148 C23.0491218,44.657196 22.8806258,44.7286086 22.7130557,44.7999507 L22.7130557,44.7999507 L21.7187643,45.2271442 C21.5549071,45.2981975 21.3919805,45.3691767 21.2299868,45.4400802 L21.2299868,45.4400802 L20.2692383,45.8645771 C20.1109856,45.9351702 19.9536705,46.0056839 19.7972953,46.0761164 L19.7972953,46.0761164 L18.8703422,46.4977231 C18.717736,46.5678238 18.5660746,46.6378397 18.41536,46.707769 L18.41536,46.707769 L17.5224547,47.126292 L17.5224547,47.126292 L17.0845596,47.3347476 L16.2259547,47.7499934 L15.3903571,48.1629467 L14.577879,48.5735217 C14.4443988,48.6417478 14.3118866,48.7098713 14.1803448,48.7778903 L14.1803448,48.7778903 L13.4027563,49.1847363 C13.2751052,49.2523303 13.148429,49.3198161 13.0227301,49.3871921 L13.0227301,49.3871921 L12.2802839,49.7901156 C11.7931634,50.0578333 11.3217552,50.323736 10.866209,50.587709 L10.866209,50.587709 L10.1948048,50.9822068 C3.49019017,54.9779286 0.491872366,58.511529 1.73060745,61.1761926 C2.59549418,63.0366647 5.42139888,64.5060041 9.97736247,65.5369436 L9.97736247,65.5369436 L10.5558519,65.6635242 L11.1522626,65.7855177 L11.7664942,65.9029035 L12.3984466,66.0156611 C12.6120397,66.0524733 12.8285695,66.0885107 13.0480194,66.1237699 L13.0480194,66.1237699 L13.7151125,66.2272096 C13.9403857,66.2609089 14.1685623,66.2938267 14.3996255,66.3259594 L14.3996255,66.3259594 L15.1014583,66.419999 L15.8205106,66.5093078 L16.5566822,66.5938652 L17.3098728,66.6736509 L18.0799822,66.7486442 L18.8669101,66.8188247 L19.6705563,66.8841718 L20.4908205,66.944665 L21.3276026,67.0002838 L22.1808022,67.0510078 L23.0503191,67.0968162 C23.1965928,67.1040402 23.3435422,67.1110586 23.4911653,67.1178708 L23.4911653,67.1178708 L24.3849702,67.1562677 L25.2948419,67.1896978 L26.22068,67.2181408 L27.1623844,67.2415759 C27.3206518,67.2450633 27.479576,67.2483412 27.6391551,67.2514092 L27.6391551,67.2514092 L28.6044709,67.2672943 C28.766661,67.2695208 28.9295017,67.2715365 29.0929909,67.273341 L29.0929909,67.273341 L30.0816925,67.2816298 L30.5818491,67.2842296 L31.7379871,67.2842296 L32.9135201,67.2779862 C33.3607887,67.2743828 33.8114931,67.2693824 34.2655743,67.2629911 L34.2655743,67.2629911 L35.6378887,67.23965 C35.8682763,67.2350662 36.0994934,67.2301362 36.3315324,67.2248606 L36.3315324,67.2248606 L37.733571,67.1890662 L39.1549819,67.1450134 C39.3934783,67.1369851 39.6327671,67.1286141 39.8728409,67.1199012 L39.8728409,67.1199012 L41.3226442,67.0635269 L42.7909318,66.9989821 L44.2773486,66.9263019 L44.2773486,66.9263019 L45.0272444,66.886922 L46.540189,66.8021045 L48.0703748,66.7092394 L49.6174467,66.6083618 L51.1810495,66.4995068 L52.760828,66.3827096 L54.3564271,66.2580052 L55.9674916,66.1254287 L55.9674916,66.1254287 L56.7787124,66.0561994 L58.4123091,65.9118807 L60.0604834,65.7597777 L61.7228799,65.5999255 C62.0011115,65.5726397 62.2799208,65.5450324 62.5593006,65.5171045 L62.5593006,65.5171045 L64.2423647,65.3456944 C64.5239964,65.3164867 64.8061838,65.2869597 65.0889193,65.2571142 L65.0889193,65.2571142 L66.7918519,65.0742252 L68.5075861,64.8837275 L70.2357669,64.6856563 L70.2357669,64.6856563 L71.1044137,64.5837915 L72.8505983,64.3744257 L74.6083414,64.157574 L76.377288,63.9332716 L78.1570829,63.7015537 L79.2321582,63.5583202 C78.866314,62.7293451 78.529242,61.8849776 78.2222222,61.0264901 C78.9162748,61.8413383 79.6728206,62.6297422 80.4876195,63.3889656 L81.7477967,63.2160114 L83.5580053,62.9622573 L85.3776416,62.7012281 L87.2063503,62.4329589 L89.0437762,62.1574847 L90.8895643,61.8748407 L92.7433593,61.585062 L94.604806,61.2881838 L96.4735494,60.984241 C96.7855949,60.9329972 97.0979297,60.8814604 97.4105463,60.8296315 L97.4105463,60.8296315 L99.2895687,60.5151579 L101.175,60.1937076 L103.066484,59.8653157 L104.963667,59.5300173 L106.866193,59.1878476 L108.773708,58.8388417 L110.685855,58.4830346 L112.602279,58.1204615 L114.522627,57.7511575 L116.446541,57.3751577 L118.373668,56.9924972 L120.142309,56.6360055 L121.903977,56.2758694 L123.658422,55.9121647 L125.405393,55.5449674 L127.144639,55.1743532 L128.112593,54.9652212 L128.11269,45.1519366 C128.11269,43.4532611 128.11269,42.0062412 127.987334,40.6221353 L130.306422,40.6221353 L130.369101,43.4532611 L130.494457,43.4532611 C131.183915,41.50293 132.750867,40.3075657 134.505853,40.3075657 C134.819243,40.3075657 135.007277,40.3075657 135.257989,40.3704796 L135.257989,42.824122 C135.007277,42.7612081 134.693887,42.7612081 134.380497,42.7612081 C132.500155,42.7612081 131.183915,44.1453141 130.870525,46.1585591 C130.807847,46.5360425 130.745169,46.913526 130.745169,47.3539233 L130.744593,54.3902212 L132.313526,54.0427687 L134.019369,53.6592461 L135.716236,53.272686 L137.403874,52.8831643 L139.082035,52.4907569 L140.022593,52.2672212 L140.022792,34.0993377 L142.592593,34.0993377 L142.592593,42.9701987 L142.655271,42.9701987 C143.031339,42.2152318 143.65812,41.5860927 144.472934,41.1456954 C145.225071,40.705298 146.165242,40.3907285 147.105413,40.3907285 C148.947381,40.3907285 151.93212,41.5378002 152.053179,46.1975481 L152.05698,46.4933775 L152.056593,49.2762212 L152.928321,49.0495053 L154.503945,48.6334678 L156.067461,48.2153412 L156.193593,48.1802212 L156.193732,40.8311258 L158.763533,40.8311258 L158.762593,47.4812212 L159.921631,47.161383 L161.440794,46.7365422 L162.946722,46.3099537 L164.439162,45.8816935 L165.594593,45.5452212 L165.595442,40.8311258 L168.102564,40.8311258 L168.101593,44.8052212 L168.833062,44.5876408 L170.269052,44.1534522 L171.690303,43.7179712 L172.426593,43.4882212 L172.42735,34.2880795 L174.997151,34.2880795 L174.996593,42.6802212 L175.521591,42.5131627 C176.471195,41.3002785 177.97665,40.5794702 179.88604,40.5794702 C180.288664,40.5794702 180.677267,40.6175502 181.04977,40.691526 L181.205328,40.6397894 L182.499649,40.1967004 L182.499649,40.1967004 L183.140452,39.9749226 L184.409189,39.5309476 L185.660556,39.0864769 L186.894304,38.6415863 L188.110181,38.1963517 L189.307937,37.7508489 L190.487321,37.3051538 L191.648084,36.8593423 L192.789974,36.4134902 L193.883379,35.9793684 C194.063797,35.9071282 194.243305,35.8349458 194.421902,35.7628231 L194.421902,35.7628231 L195.482521,35.3308172 C195.657461,35.2589403 195.831485,35.1871267 196.004589,35.1153782 L196.004589,35.1153782 L197.032171,34.6856817 C197.20159,34.6142005 197.370086,34.542788 197.537657,34.4714458 L197.537657,34.4714458 L198.531948,34.0442524 C198.695805,33.9731991 198.858732,33.9022198 199.020725,33.8313164 L199.020725,33.8313164 L199.981474,33.4068195 C200.139727,33.3362264 200.297042,33.2657127 200.453417,33.1952802 L200.453417,33.1952802 L201.38037,32.7736734 C201.532976,32.7035728 201.684638,32.6335569 201.835352,32.5636276 L201.835352,32.5636276 L202.728258,32.1451045 C202.875175,32.0755286 203.021141,32.0060428 203.166153,31.9366489 L203.166153,31.9366489 L204.024758,31.5214032 L204.860355,31.1084498 L205.672833,30.6978749 C205.806313,30.6296487 205.938826,30.5615252 206.070367,30.4935062 L206.070367,30.4935062 L206.847956,30.0866602 C206.975607,30.0190663 207.102283,29.9515804 207.227982,29.8842044 L207.227982,29.8842044 L207.970428,29.4812809 C208.457549,29.2135632 208.928957,28.9476605 209.384503,28.6836876 L209.384503,28.6836876 L210.055907,28.2891898 C216.760522,24.2934679 219.75884,20.7598675 218.521161,18.0974596 Z M87.6226618,40.6221353 L90.819243,49.1784267 C91.1326333,50.1221353 91.5087017,51.2545856 91.7594139,52.1353803 L91.822092,52.1353803 C92.0728042,51.2545856 92.3861945,50.1850492 92.7622629,49.1155127 L95.6454538,40.6221353 L98.4032885,40.6221353 L94.4545706,50.9400161 C92.5742287,55.9102147 91.2579894,58.426771 89.5030036,59.9996187 C88.1867643,61.132069 86.9332031,61.5724664 86.2437444,61.6982942 L85.5542857,59.4963075 C86.2437444,59.3075657 87.0585592,58.8671684 87.873374,58.2380293 C88.5628327,57.6718041 89.5030036,56.6651816 90.0671062,55.2810757 C90.1924623,55.02942 90.2551404,54.7777644 90.2551404,54.6519366 C90.2551404,54.5261088 90.1924623,54.2744531 90.0671062,53.9598836 L84.6767928,40.6221353 L87.6226618,40.6221353 Z M47.1326333,40.6221353 L47.1326333,53.7711419 C47.1326333,56.5393538 46.6938868,58.3638571 45.3776475,59.6850492 C44.2568163,60.7508848 42.4697324,61.2594207 41.1137532,61.3155605 L40.864827,61.3208108 L40.6141148,59.2446518 C41.8049979,59.118824 42.870525,58.8042545 43.4973056,58.1122015 C44.2251799,57.3207039 44.4834579,56.2346043 44.4993636,53.0292705 L44.5001546,52.7016055 L44.5001546,40.6221353 L47.1326333,40.6221353 Z M76.7793569,40.2446518 C80.2893284,40.2446518 82.9218071,43.2016055 82.9218071,47.605579 C82.9218071,52.8274333 79.7252259,55.3439896 76.3406105,55.3439896 C74.3975905,55.3439896 72.7679609,54.5261088 71.890468,53.0790889 L71.82779,53.0790889 L71.82779,60.9433273 L69.1953113,60.9433273 L69.1953113,45.3406783 C69.1953113,43.516175 69.1326333,42.0062412 69.0699552,40.6221353 L71.4517216,40.6221353 L71.5770777,43.0757776 L71.6397558,43.0757776 C72.7052828,41.3141882 74.3975905,40.2446518 76.7793569,40.2446518 Z M105.297875,36.4698174 L105.297875,40.6221353 L109.058559,40.6221353 L109.058559,42.6353803 L105.297875,42.6353803 L105.297875,50.4367048 C105.297875,52.1982942 105.7993,53.2678306 107.303573,53.2678306 C107.993032,53.2678306 108.494457,53.2049167 108.807847,53.0790889 L108.933203,55.02942 C108.431779,55.2181618 107.616964,55.4069035 106.614115,55.4069035 C105.360554,55.4069035 104.420383,55.02942 103.793602,54.2744531 C103.041465,53.5194863 102.790753,52.1982942 102.790753,50.4996187 L102.790753,42.6353803 L100.534343,42.6353803 L100.534343,40.6221353 L102.790753,40.6221353 L102.790753,37.1618704 L105.297875,36.4698174 Z M54.5913227,40.6221353 L54.5913227,48.6122015 C54.5913227,51.3804134 55.4061375,53.2049167 57.850582,53.2049167 C59.6055677,53.2049167 60.859129,52.0095525 61.2978754,50.8141882 C61.4232316,50.4367048 61.5485877,49.9333935 61.5485877,49.4929962 L61.5485877,40.6221353 L64.1810663,40.6221353 L64.1810663,51.1287578 C64.1810663,52.6386916 64.1810663,53.9598836 64.3064225,55.0923339 L61.9873341,55.0923339 L61.861978,52.7016055 L61.7992999,52.7016055 C61.1098413,53.8969697 59.6055677,55.4069035 56.9730891,55.4069035 C54.7166789,55.4069035 51.9588441,54.1486253 51.9588441,49.0525988 L51.9588441,40.6221353 L54.5913227,40.6221353 Z M118.209556,40.3075657 C122.973089,40.3075657 124.22665,44.4598836 124.22665,47.1022677 C124.22665,47.6684929 124.163972,48.0459763 124.163972,48.297632 L113.947448,48.297632 L113.947448,48.3605459 C114.010126,51.9466386 116.266536,53.3936584 118.899015,53.3936584 C120.779357,53.3936584 121.907562,53.0790889 122.910411,52.6386916 L123.349157,54.5261088 C122.408987,54.9665061 120.842035,55.4069035 118.522947,55.4069035 C114.072804,55.4069035 111.377648,52.4499498 111.377648,48.1088902 C111.377648,43.7678306 113.947448,40.3075657 118.209556,40.3075657 Z M75.901864,42.3837247 C74.0842002,42.3837247 72.4545706,43.6420028 71.890468,45.6552478 C71.82779,45.9698174 71.7024338,46.3473008 71.7024338,46.7247843 L71.7024338,49.1784267 L71.7651119,49.1784267 C71.7651119,49.5559101 71.82779,49.9333935 71.890468,50.2479631 C72.3918925,52.0724664 73.9588441,53.3307445 75.839186,53.3307445 C78.5970207,53.3307445 80.2266504,51.0658439 80.2266504,47.7314068 C80.2266504,44.8373671 78.7223769,42.3837247 75.901864,42.3837247 Z M179.071225,42.5298013 C178.777357,42.5298013 178.485247,42.5650817 178.200191,42.632984 L177.582449,42.8356729 C176.431941,43.3209616 175.477976,44.3557853 175.122507,45.7384106 C175.070275,46.0005519 175.018044,46.2626932 175.002084,46.5976515 L174.997151,46.807947 L174.934473,46.807947 L174.934473,49.3245033 C174.934473,49.6390728 174.997151,49.9536424 175.059829,50.2682119 C175.561254,52.0298013 177.065527,53.2880795 178.945869,53.2880795 C181.641026,53.2880795 183.270655,51.0860927 183.270655,47.8145695 C183.270655,44.9834437 181.82906,42.5298013 179.071225,42.5298013 Z M165.594593,46.5252212 L165.441964,46.5703568 L163.953259,47.0003659 L162.45095,47.4287263 L160.935288,47.8553624 L159.406522,48.2801984 L158.762593,48.4562212 L158.763533,48.6953642 C158.763533,51.4006623 159.641026,53.2251656 161.960114,53.2251656 C163.652422,53.2251656 164.905983,52.0298013 165.344729,50.897351 C165.505902,50.5737938 165.574975,50.1577916 165.591421,49.7682023 L165.595442,49.5761589 L165.594593,46.5252212 Z M146.22792,42.5927152 C144.598291,42.5927152 143.219373,43.7880795 142.780627,45.1721854 C142.619455,45.4957427 142.59643,45.8192999 142.593141,46.2220956 L142.592593,46.4304636 L142.59201,51.6533406 C142.806375,51.6014976 143.020481,51.5495876 143.234326,51.4976114 L143.234326,51.4976114 L144.87734,51.0957015 L146.509749,50.6912474 L148.131302,50.2843248 L149.486593,49.9392212 L149.487179,46.807947 C149.487179,44.5430464 148.672365,42.5927152 146.22792,42.5927152 Z M118.021522,42.1949829 C115.326365,42.1949829 114.19816,44.6486253 113.947448,46.4731286 L121.65685,46.4731286 C121.65685,44.7744531 120.967391,42.1949829 118.021522,42.1949829 Z M85.994302,12.4569536 C86.0569801,14.5331126 84.4900285,16.2317881 82.4216524,16.3576159 C80.3532764,16.4205298 78.5982906,14.8476821 78.5356125,12.7715232 C78.4729345,10.6953642 80.039886,8.93377483 82.1082621,8.87086093 C84.1766382,8.80794702 85.9316239,10.3807947 85.994302,12.4569536 Z M147.481481,5.78807947 C147.606838,8.99668874 145.099715,11.7649007 141.903134,11.8907285 C138.706553,12.0165563 136.011396,9.5 135.823362,6.29139073 C135.698006,3.08278146 138.205128,0.314569536 141.401709,0.188741722 C144.598291,0.0629139073 147.293447,2.5794702 147.481481,5.78807947 Z"/>
</svg>
