<svg xmlns="http://www.w3.org/2000/svg" width="40" height="45" viewBox="0 0 40 45">
  <path fill="#FFF" fill-rule="evenodd" d="M35.145898,37 C35.9034422,37 36.5959684,37.4280048 36.9347524,38.1055728 L39.6583592,43.5527864 C39.9053485,44.0467649 39.7051241,44.6474379 39.2111456,44.8944272 C39.0722902,44.9638549 38.9191771,45 38.763932,45 L2,45 C1.44771525,45 1,44.5522847 1,44 C1,43.8447549 1.03614509,43.6916418 1.10557281,43.5527864 L3.82917961,38.1055728 C4.16796364,37.4280048 4.86048987,37 5.61803399,37 L35.145898,37 Z M20.381966,0 C31.2895898,0 40.131966,8.83854245 40.131966,19.7414371 C40.131966,25.3467691 37.7948082,30.4064654 34.0414176,34 L6.72251441,34 C2.96912384,30.4064654 0.631966011,25.3467691 0.631966011,19.7414371 C0.631966011,8.83854245 9.4743422,0 20.381966,0 Z M20.381966,3 C16.8040403,3 13.4882006,4.12122059 10.7669126,6.03126503 C10.9693614,6.01053654 11.1744333,6 11.381966,6 C14.6956745,6 17.381966,8.6862915 17.381966,12 C17.381966,15.3137085 14.6956745,18 11.381966,18 C8.15842875,18 5.52862705,15.4579158 5.38789188,12.2690785 C4.26472991,14.5176396 3.63196601,17.0557029 3.63196601,19.7414371 C3.63196601,23.9502031 5.1901772,27.9045999 7.93764012,30.9480022 L7.985,31 L32.778,31 L32.8262919,30.9480022 C35.4821727,28.0060467 37.0267639,24.2128173 37.1267856,20.1614415 L37.131966,19.7414371 C37.131966,10.495688 29.6330267,3 20.381966,3 Z" transform="translate(-.382)"/>
</svg>
