<svg xmlns="http://www.w3.org/2000/svg" width="23" height="23" viewBox="0 0 23 23">
  <path fill="#707B89" d="M17,2.99961184 L15,5 L5,4.99961184 L5,17.9996118 L18,17.9996118 L18,8 L20,5.99961184 L20,18.1111111 C20,19.1543156 19.1543156,20 18.1111111,20 L4.88888889,20 C3.84568436,20 3,19.1543156 3,18.1111111 L3,4.88888889 C3,3.84568436 3.84568436,3 4.88888889,3 L17,2.99961184 Z M22,0 C22.4924494,0 22.9173526,0.389728312 22.9896941,0.884169186 L23,1 L22.9986383,6.74251028 C22.9807025,6.96824801 22.868143,7.18470927 22.7166201,7.33623215 C22.5398434,7.51300884 22.2923572,7.6190761 22.009514,7.61907521 C21.50065,7.60266056 21.0663708,7.23566825 21.0069272,6.73040568 L21,6.61144876 L21,3.44714556 L12.4458952,12.0208153 C12.0569865,12.409724 11.4205905,12.4097242 11.0316816,12.0208153 C10.6726887,11.6618224 10.6450741,11.0919531 10.9488372,10.7005179 L11.0316816,10.6066018 L19.5699967,2 L16.4056935,2 C15.8400082,2 15.3980665,1.57331241 15.3980661,1.00762734 C15.3980663,0.479653782 15.7830467,0.0594754938 16.2943006,0.00579827126 L16.4056935,0 L22,0 Z"/>
</svg>
